{
  "accessors": [
    {
      "bufferView": 2,
      "componentType": 5126,
      "count": 65532,
      "max": [
        10.980316162109375,
        1.6194180250167847,
        11.865962982177734
      ],
      "min": [
        -14.601492881774902,
        -5.1504840850830078,
        -6.7050189971923828
      ],
      "type": "VEC3"
    },
    {
      "bufferView": 2,
      "byteOffset": 786384,
      "componentType": 5126,
      "count": 65532,
      "max": [
        0.99981290102005005,
        0.99999690055847168,
        0.99998348951339722
      ],
      "min": [
        -0.99992233514785767,
        -0.82674741744995117,
        -0.99997645616531372
      ],
      "type": "VEC3"
    },
    {
      "bufferView": 3,
      "componentType": 5126,
      "count": 65532,
      "max": [
        0.75294119119644165,
        0.75294119119644165,
        0.75294119119644165,
        1
      ],
      "min": [
        0.75294119119644165,
        0.75294119119644165,
        0.75294119119644165,
        1
      ],
      "type": "VEC4"
    },
    {
      "bufferView": 1,
      "componentType": 5126,
      "count": 65532,
      "max": [
        0.99877899885177612,
        0.99877899885177612
      ],
      "min": [
        0.0012209999840706587,
        0.0014649999793618917
      ],
      "type": "VEC2"
    },
    {
      "bufferView": 3,
      "byteOffset": 1048512,
      "componentType": 5126,
      "count": 65532,
      "max": [
        0.99973815679550171,
        0.99998795986175537,
        0.97778379917144775,
        1
      ],
      "min": [
        -0.99992722272872925,
        -0.99997818470001221,
        -0.99996507167816162,
        -1
      ],
      "type": "VEC4"
    },
    {
      "bufferView": 0,
      "componentType": 5125,
      "count": 342297,
      "max": [
        65531
      ],
      "min": [
        0
      ],
      "type": "SCALAR"
    },
    {
      "bufferView": 2,
      "byteOffset": 1572768,
      "componentType": 5126,
      "count": 31645,
      "max": [
        7.0145168304443359,
        1.6578199863433838,
        5.9365448951721191
      ],
      "min": [
        -0.17765100300312042,
        -3.524817943572998,
        -6.7060728073120117
      ],
      "type": "VEC3"
    },
    {
      "bufferView": 2,
      "byteOffset": 1952508,
      "componentType": 5126,
      "count": 31645,
      "max": [
        0.99998962879180908,
        0.99998962879180908,
        0.99996232986450195
      ],
      "min": [
        -0.99996376037597656,
        -0.79544281959533691,
        -0.99995297193527222
      ],
      "type": "VEC3"
    },
    {
      "bufferView": 3,
      "byteOffset": 2097024,
      "componentType": 5126,
      "count": 31645,
      "max": [
        0.75294119119644165,
        0.75294119119644165,
        0.75294119119644165,
        1
      ],
      "min": [
        0.75294119119644165,
        0.75294119119644165,
        0.75294119119644165,
        1
      ],
      "type": "VEC4"
    },
    {
      "bufferView": 1,
      "byteOffset": 524256,
      "componentType": 5126,
      "count": 31645,
      "max": [
        0.99877899885177612,
        0.92454200983047485
      ],
      "min": [
        0.0012209999840706587,
        0.0019539999775588512
      ],
      "type": "VEC2"
    },
    {
      "bufferView": 3,
      "byteOffset": 2603344,
      "componentType": 5126,
      "count": 31645,
      "max": [
        0.99997967481613159,
        0.99997365474700928,
        0.99974191188812256,
        -1
      ],
      "min": [
        -0.99999523162841797,
        -0.99973165988922119,
        -0.99996453523635864,
        -1
      ],
      "type": "VEC4"
    },
    {
      "bufferView": 0,
      "byteOffset": 1369188,
      "componentType": 5125,
      "count": 152529,
      "max": [
        31644
      ],
      "min": [
        0
      ],
      "type": "SCALAR"
    }
  ],
  "asset": {
    "generator": "Sketchfab (OSG glTF plugin)",
    "version": "2.0"
  },
  "bufferViews": [
    {
      "buffer": 0,
      "byteLength": 1979304,
      "byteOffset": 0,
      "name": "ScalarBufferView",
      "target": 34963
    },
    {
      "buffer": 0,
      "byteLength": 777416,
      "byteOffset": 1979304,
      "byteStride": 8,
      "name": "Vec3BufferView",
      "target": 34962
    },
    {
      "buffer": 0,
      "byteLength": 2332248,
      "byteOffset": 2756720,
      "byteStride": 12,
      "name": "Vec4BufferView",
      "target": 34962
    },
    {
      "buffer": 0,
      "byteLength": 3109664,
      "byteOffset": 5088968,
      "byteStride": 16,
      "name": "MatrixBufferView",
      "target": 34962
    }
  ],
  "buffers": [
    {
      "byteLength": 8198632,
      "uri": "scene.bin"
    }
  ],
  "images": [
    {
      "uri": "textures/material_0_baseColor.jpeg"
    }
  ],
  "materials": [
    {
      "doubleSided": true,
      "emissiveFactor": [
        0,
        0,
        0
      ],
      "name": "material_0",
      "pbrMetallicRoughness": {
        "baseColorFactor": [
          1,
          1,
          1,
          1
        ],
        "baseColorTexture": {
          "index": 0,
          "texCoord": 0
        },
        "metallicFactor": 0,
        "roughnessFactor": 1
      }
    }
  ],
  "meshes": [
    {
      "primitives": [
        {
          "attributes": {
            "COLOR_0": 2,
            "NORMAL": 1,
            "POSITION": 0,
            "TANGENT": 4,
            "TEXCOORD_0": 3
          },
          "indices": 5,
          "material": 0,
          "mode": 4
        },
        {
          "attributes": {
            "COLOR_0": 8,
            "NORMAL": 7,
            "POSITION": 6,
            "TANGENT": 10,
            "TEXCOORD_0": 9
          },
          "indices": 11,
          "material": 0,
          "mode": 4
        }
      ]
    }
  ],
  "nodes": [
    {
      "children": [
        1
      ],
      "name": "RootNode (gltf orientation matrix)",
      "rotation": [
        -0.70710678118654746,
        -0,
        -0,
        0.70710678118654757
      ]
    },
    {
      "children": [
        2
      ],
      "matrix": [
        0.98506176471710205,
        0.018245778977870941,
        0.17123197019100189,
        0,
        -0.17220133543014526,
        0.10437329858541489,
        0.97951668500900269,
        0,
        0,
        -0.99437081813812256,
        0.10595609247684479,
        0,
        -0.3310791552066803,
        1.0177320241928101,
        4.3465151786804199,
        1
      ],
      "name": "RootNode (model correction matrix)"
    },
    {
      "children": [
        3
      ],
      "name": "mesh.obj.cleaner.materialmerger.gles"
    },
    {
      "mesh": 0,
      "name": ""
    }
  ],
  "samplers": [
    {
      "magFilter": 9729,
      "minFilter": 9987,
      "wrapS": 10497,
      "wrapT": 10497
    }
  ],
  "scene": 0,
  "scenes": [
    {
      "name": "OSG_Scene",
      "nodes": [
        0
      ]
    }
  ],
  "textures": [
    {
      "sampler": 0,
      "source": 0
    }
  ]
}

