{
  "accessors": [
    {
      "bufferView": 2,
      "componentType": 5126,
      "count": 65532,
      "max": [
        11.452248573303223,
        3.6055428981781006,
        8.5708236694335938
      ],
      "min": [
        -15.343630790710449,
        -5.6177759170532227,
        -10.489046096801758
      ],
      "type": "VEC3"
    },
    {
      "bufferView": 2,
      "byteOffset": 786384,
      "componentType": 5126,
      "count": 65532,
      "max": [
        0.99994999170303345,
        0.99999809265136719,
        0.99980366230010986
      ],
      "min": [
        -0.99994945526123047,
        -0.95640689134597778,
        -0.99960547685623169
      ],
      "type": "VEC3"
    },
    {
      "bufferView": 3,
      "componentType": 5126,
      "count": 65532,
      "max": [
        0.75294119119644165,
        0.75294119119644165,
        0.75294119119644165,
        1
      ],
      "min": [
        0.75294119119644165,
        0.75294119119644165,
        0.75294119119644165,
        1
      ],
      "type": "VEC4"
    },
    {
      "bufferView": 1,
      "componentType": 5126,
      "count": 65532,
      "max": [
        0.99877899885177612,
        0.99876701831817627
      ],
      "min": [
        0.0012209999840706587,
        0.0086310002952814102
      ],
      "type": "VEC2"
    },
    {
      "bufferView": 3,
      "byteOffset": 1048512,
      "componentType": 5126,
      "count": 65532,
      "max": [
        0.99992811679840088,
        0.99998682737350464,
        0.99845761060714722,
        1
      ],
      "min": [
        -0.99997413158416748,
        -0.99992460012435913,
        -0.9999956488609314,
        -1
      ],
      "type": "VEC4"
    },
    {
      "bufferView": 0,
      "componentType": 5125,
      "count": 342690,
      "max": [
        65531
      ],
      "min": [
        0
      ],
      "type": "SCALAR"
    },
    {
      "bufferView": 2,
      "byteOffset": 1572768,
      "componentType": 5126,
      "count": 61903,
      "max": [
        11.420230865478516,
        3.3947720527648926,
        13.031661033630371
      ],
      "min": [
        -5.1903681755065918,
        -5.6663908958435059,
        -3.4563570022583008
      ],
      "type": "VEC3"
    },
    {
      "bufferView": 2,
      "byteOffset": 2315604,
      "componentType": 5126,
      "count": 61903,
      "max": [
        0.99996411800384521,
        0.99999511241912842,
        0.99995064735412598
      ],
      "min": [
        -0.99998599290847778,
        -0.79637831449508667,
        -0.99961775541305542
      ],
      "type": "VEC3"
    },
    {
      "bufferView": 3,
      "byteOffset": 2097024,
      "componentType": 5126,
      "count": 61903,
      "max": [
        0.75294119119644165,
        0.75294119119644165,
        0.75294119119644165,
        1
      ],
      "min": [
        0.75294119119644165,
        0.75294119119644165,
        0.75294119119644165,
        1
      ],
      "type": "VEC4"
    },
    {
      "bufferView": 1,
      "byteOffset": 524256,
      "componentType": 5126,
      "count": 61903,
      "max": [
        0.99877899885177612,
        0.99876701831817627
      ],
      "min": [
        0.0012209999840706587,
        0.0093710003420710564
      ],
      "type": "VEC2"
    },
    {
      "bufferView": 3,
      "byteOffset": 3087472,
      "componentType": 5126,
      "count": 61903,
      "max": [
        0.99999040365219116,
        0.99960577487945557,
        0.99998706579208374,
        -1
      ],
      "min": [
        -0.9995998740196228,
        -0.9989478588104248,
        -0.99997067451477051,
        -1
      ],
      "type": "VEC4"
    },
    {
      "bufferView": 0,
      "byteOffset": 1370760,
      "componentType": 5125,
      "count": 314559,
      "max": [
        61902
      ],
      "min": [
        0
      ],
      "type": "SCALAR"
    }
  ],
  "asset": {
    "generator": "Sketchfab (OSG glTF plugin)",
    "version": "2.0"
  },
  "bufferViews": [
    {
      "buffer": 0,
      "byteLength": 2628996,
      "byteOffset": 0,
      "name": "ScalarBufferView",
      "target": 34963
    },
    {
      "buffer": 0,
      "byteLength": 1019480,
      "byteOffset": 2628996,
      "byteStride": 8,
      "name": "Vec3BufferView",
      "target": 34962
    },
    {
      "buffer": 0,
      "byteLength": 3058440,
      "byteOffset": 3648476,
      "byteStride": 12,
      "name": "Vec4BufferView",
      "target": 34962
    },
    {
      "buffer": 0,
      "byteLength": 4077920,
      "byteOffset": 6706916,
      "byteStride": 16,
      "name": "MatrixBufferView",
      "target": 34962
    }
  ],
  "buffers": [
    {
      "byteLength": 10784836,
      "uri": "scene.bin"
    }
  ],
  "images": [
    {
      "uri": "textures/material_0_baseColor.jpeg"
    }
  ],
  "materials": [
    {
      "doubleSided": true,
      "emissiveFactor": [
        0,
        0,
        0
      ],
      "name": "material_0",
      "pbrMetallicRoughness": {
        "baseColorFactor": [
          1,
          1,
          1,
          1
        ],
        "baseColorTexture": {
          "index": 0,
          "texCoord": 0
        },
        "metallicFactor": 0,
        "roughnessFactor": 1
      }
    }
  ],
  "meshes": [
    {
      "primitives": [
        {
          "attributes": {
            "COLOR_0": 2,
            "NORMAL": 1,
            "POSITION": 0,
            "TANGENT": 4,
            "TEXCOORD_0": 3
          },
          "indices": 5,
          "material": 0,
          "mode": 4
        },
        {
          "attributes": {
            "COLOR_0": 8,
            "NORMAL": 7,
            "POSITION": 6,
            "TANGENT": 10,
            "TEXCOORD_0": 9
          },
          "indices": 11,
          "material": 0,
          "mode": 4
        }
      ]
    }
  ],
  "nodes": [
    {
      "children": [
        1
      ],
      "name": "RootNode (gltf orientation matrix)",
      "rotation": [
        -0.70710678118654746,
        -0,
        -0,
        0.70710678118654757
      ]
    },
    {
      "children": [
        2
      ],
      "matrix": [
        0.98989701271057129,
        0.010222723707556725,
        0.14141933619976044,
        0,
        -0.14174537360668182,
        0.095900923013687134,
        0.98524677753448486,
        0,
        -0.0034903388004750013,
        -0.99533838033676147,
        0.096381053328514099,
        0,
        -0.16127672791481018,
        0.35361984372138977,
        2.4390988349914551,
        1
      ],
      "name": "RootNode (model correction matrix)"
    },
    {
      "children": [
        3
      ],
      "name": "mesh.obj.cleaner.materialmerger.gles"
    },
    {
      "mesh": 0,
      "name": ""
    }
  ],
  "samplers": [
    {
      "magFilter": 9729,
      "minFilter": 9987,
      "wrapS": 10497,
      "wrapT": 10497
    }
  ],
  "scene": 0,
  "scenes": [
    {
      "name": "OSG_Scene",
      "nodes": [
        0
      ]
    }
  ],
  "textures": [
    {
      "sampler": 0,
      "source": 0
    }
  ]
}

